{"title":"The.Hunger.Games.Mockingjay.Part.2.2015.1080p.WEB-DL.DD5.1.H264-","uid":13800043,"size":4990166007,"categoryP":"video","categoryS":"hd___movies","magnet":"?xt=urn:btih:593ef73ed41b038b7c3384dbaecaf6b0f1fc978a&amp;dn=The.Hunger.Games.Mockingjay.Part.2.2015.1080p.WEB-DL.DD5.1.H264-&amp;tr=udp%3A%2F%2Ftracker.leechers-paradise.org%3A6969&amp;tr=udp%3A%2F%2Fzer0day.ch%3A1337&amp;tr=udp%3A%2F%2Fopen.demonii.com%3A1337&amp;tr=udp%3A%2F%2Ftracker.coppersurfer.tk%3A6969&amp;tr=udp%3A%2F%2Fexodus.desync.com%3A6969","seeders":1,"leechers":3,"uploader":"makintos13","files":4,"time":1457446730,"description":"screens:\r\n \nhttp://imgmak.com/KnM\r\n \nhttp://imgmak.com/KnO\r\n \nhttp://imgmak.com/KnP\r\n \nhttp://imgmak.com/KnY\r\n \nhttp://imgmak.com/Kn0\r\n\r\n::::::::::::::::::::::::::::\r\n\r\nVideo\r\nID                                       : 1\r\nFormat                                   : AVC\r\nFormat/Info                              : Advanced Video Codec\r\nFormat profile                           :   \r\nFormat settings, CABAC                   : Yes\r\nFormat settings, ReFrames                : 5 frames\r\nCodec ID                                 : V_MPEG4/ISO/AVC\r\nDuration                                 : 2h 16mn\r\nBit rate                                 : 4 379 Kbps\r\nWidth                                    : 1 912 pixels\r\nHeight                                   : 792 pixels\r\nDisplay aspect ratio                     : 2.40:1\r\nFrame rate mode                          : Constant\r\nFrame rate                               : 23.976 (24000/1001) fps\r\nColor space                              : YUV\r\nChroma subsampling                       : 4:2:0\r\nBit depth                                : 8 bits\r\nScan type                                : Progressive\r\nBits/(Pixel*Frame)                       : 0.121\r\nStream size                              : 4.19 GiB (90%)\r\nTitle                                    : The.Hunger.Games.Mockingjay.Part.2.2015.1080p.WEB-DL.DD5.1.H264-FGT\r\nLanguage                                 : English\r\nDefault                                  : Yes\r\nForced                                   : No\r\nColor range                              : Limited\r\nColor primaries                          : BT.709\r\nTransfer characteristics                 : BT.709\r\nMatrix coefficients                      : BT.709\r\n\r\nAudio\r\nID                                       : 2\r\nFormat                                   : AC-3\r\nFormat/Info                              : Audio Coding 3\r\nMode extension                           : CM (complete main)\r\nFormat settings, Endianness              : Big\r\nCodec ID                                 : A_AC3\r\nDuration                                 : 2h 16mn\r\nBit rate mode                            : Constant\r\nBit rate                                 : 384 Kbps\r\nChannel(s)                               : 6 channels\r\nChannel positions                        : Front: L C R, Side: L R, LFE\r\nSampling rate                            : 48.0 KHz\r\nFrame rate                               : 31.250 fps (1536 spf)\r\nCompression mode                         : Lossy\r\nStream size                              : 376 MiB (8%)\r\nTitle                                    : The.Hunger.Games.Mockingjay.Part.2.2015.1080p.WEB-DL.DD5.1.H264-FGT\r\nLanguage                                 : English\r\nDefault                                  : Yes\r\nForced                                   : No\r\n\r\nText\r\nID                                       : 3\r\nFormat                                   : UTF-8\r\nCodec ID                                 : S_TEXT/UTF8\r\nCodec ID/Info                            : UTF-8 Plain Text\r\nLanguage                                 : English\r\nDefault                                  : Yes\r\nForced                                   : No\r\n\r\nMenu\r\n00:00:00.000                             : en:1\r\n00:06:57.000                             : en:2\r\n00:12:13.000                             : en:3\r\n00:19:24.000                             : en:4\r\n00:28:14.000                             : en:5\r\n00:33:44.000                             : en:6\r\n00:43:25.000                             : en:7\r\n00:49:57.000                             : en:8\r\n00:59:10.000                             : en:9\r\n01:04:35.000                             : en:10\r\n01:09:22.000                             : en:11\r\n01:17:16.000                             : en:12\r\n01:23:21.000                             : en:13\r\n01:29:52.000                             : en:14\r\n01:37:05.000                             : en:15\r\n01:43:49.000                             : en:16\r\n01:49:02.000                             : en:17\r\n01:53:07.000                             : en:18\r\n01:59:15.000                             : en:19\r\n02:05:28.000                             : en:20","torrent":{"xt":"urn:btih:593ef73ed41b038b7c3384dbaecaf6b0f1fc978a","amp;dn":"The.Hunger.Games.Mockingjay.Part.2.2015.1080p.WEB-DL.DD5.1.H264-","amp;tr":["udp%3A%2F%2Ftracker.leechers-paradise.org%3A6969","udp%3A%2F%2Fzer0day.ch%3A1337","udp%3A%2F%2Fopen.demonii.com%3A1337","udp%3A%2F%2Ftracker.coppersurfer.tk%3A6969","udp%3A%2F%2Fexodus.desync.com%3A6969"],"infoHash":"593ef73ed41b038b7c3384dbaecaf6b0f1fc978a","infoHashBuffer":{"type":"Buffer","data":[89,62,247,62,212,27,3,139,124,51,132,219,174,202,246,176,241,252,151,138]},"announce":[],"urlList":[]}}